# xmcd CD database file
#
# Track frame offsets:
#	180
#	13824
#	28748
#	41978
#	54007
#	67615
#	80903
#	95184
#	108484
#	122072
#	135909
#	150135
#	164346
#	176394
#	190180
#	204277
#	218687
#	232710
#	245563
#	259105
#	273105
#	286374
#
# Disc length: 3995 seconds
#
# Revision: 2
# Processed by: cddbd v1.5.2PL0 Copyright (c) Steve Scherf et al.
# Submitted via: CDex 1.51
#
DISCID=220f9916
DTITLE=Billie Holiday - Masterpieces - Vol.6  {1935-1942}
DYEAR=1994
DGENRE=Jazz
TTITLE0=What A Little Moonlight Can Do   [1935]
TTITLE1=These Foolish Things   [1936]
TTITLE2=Summertime   [1936]
TTITLE3=Billie's Blues   [1936]
TTITLE4=Let's Call A Heart A Heart   [1936]
TTITLE5=I've Got My Love To Keep Me Warm   [1937]
TTITLE6=This Year's Kisses   [1937]
TTITLE7=I Must Have That Man   [1937]
TTITLE8=The Mood I'm In   [1937]
TTITLE9=They Can't Take Away From Me   [1937]
TTITLE10=I'll Get By   [1937]
TTITLE11=Mean To Me   [1937]
TTITLE12=He's Funny That Way   [1937]
TTITLE13=My Man   [1937]
TTITLE14=Strange Fruit   [1939]
TTITLE15=Fine And Mellow   [1939]
TTITLE16=Long Gone Blues   [1939]
TTITLE17=Them There Eyes   [1939]
TTITLE18=Night And Day   [1939]
TTITLE19=The Man I Love   [1939]
TTITLE20=God Bless The Child   [1941]
TTITLE21=I Cover The Waterfront   [1942]
EXTD=YEAR: 1994
EXTT0=
EXTT1=
EXTT2=
EXTT3=
EXTT4=
EXTT5=
EXTT6=
EXTT7=
EXTT8=
EXTT9=
EXTT10=
EXTT11=
EXTT12=
EXTT13=
EXTT14=
EXTT15=
EXTT16=
EXTT17=
EXTT18=
EXTT19=
EXTT20=
EXTT21=
PLAYORDER=
